<?xml version="1.0" encoding="UTF-8"?>
<svg xmlns="http://www.w3.org/2000/svg" xmlns:xlink="http://www.w3.org/1999/xlink" width="375pt" height="374.999991pt" viewBox="0 0 375 374.999991" version="1.2">
<defs>
<clipPath id="clip1">
  <path d="M 115.050781 201 L 182 201 L 182 267.867188 L 115.050781 267.867188 Z M 115.050781 201 "/>
</clipPath>
<clipPath id="clip2">
  <path d="M 197 201 L 264 201 L 264 267.867188 L 197 267.867188 Z M 197 201 "/>
</clipPath>
</defs>
<g id="surface1">
<path style=" stroke:none;fill-rule:nonzero;fill:rgb(11.369324%,11.369324%,11.369324%);fill-opacity:1;" d="M 189.675781 37.5 C 187.253906 37.5 184.835938 37.558594 182.421875 37.679688 C 180.003906 37.796875 177.59375 37.976562 175.183594 38.210938 C 172.777344 38.449219 170.375 38.746094 167.984375 39.101562 C 165.589844 39.453125 163.207031 39.867188 160.835938 40.339844 C 158.460938 40.8125 156.101562 41.34375 153.753906 41.929688 C 151.410156 42.519531 149.078125 43.164062 146.761719 43.867188 C 144.445312 44.566406 142.152344 45.328125 139.871094 46.140625 C 137.59375 46.957031 135.339844 47.828125 133.101562 48.753906 C 130.867188 49.679688 128.65625 50.660156 126.46875 51.691406 C 124.28125 52.726562 122.121094 53.816406 119.988281 54.957031 C 117.855469 56.09375 115.75 57.289062 113.675781 58.53125 C 111.601562 59.773438 109.558594 61.070312 107.546875 62.414062 C 105.535156 63.757812 103.558594 65.148438 101.613281 66.589844 C 99.671875 68.03125 97.765625 69.519531 95.894531 71.054688 C 94.023438 72.589844 92.191406 74.167969 90.398438 75.792969 C 88.609375 77.417969 86.855469 79.085938 85.144531 80.796875 C 83.433594 82.507812 81.765625 84.257812 80.140625 86.050781 C 78.515625 87.84375 76.9375 89.675781 75.402344 91.546875 C 73.867188 93.417969 72.378906 95.324219 70.9375 97.265625 C 69.496094 99.210938 68.105469 101.1875 66.761719 103.199219 C 65.417969 105.210938 64.125 107.253906 62.878906 109.328125 C 61.636719 111.402344 60.445312 113.507812 59.304688 115.640625 C 58.164062 117.773438 57.074219 119.933594 56.039062 122.121094 C 55.007812 124.308594 54.027344 126.519531 53.101562 128.753906 C 52.175781 130.992188 51.304688 133.246094 50.488281 135.523438 C 49.675781 137.804688 48.914062 140.097656 48.214844 142.414062 C 47.511719 144.730469 46.867188 147.058594 46.277344 149.40625 C 45.691406 151.753906 45.160156 154.113281 44.6875 156.488281 C 44.214844 158.859375 43.804688 161.242188 43.449219 163.636719 C 43.09375 166.027344 42.796875 168.429688 42.558594 170.835938 C 42.324219 173.246094 42.144531 175.65625 42.027344 178.074219 C 41.90625 180.488281 41.847656 182.90625 41.847656 185.324219 C 41.847656 187.746094 41.90625 190.164062 42.027344 192.578125 C 42.144531 194.996094 42.324219 197.40625 42.558594 199.816406 C 42.796875 202.222656 43.09375 204.625 43.449219 207.015625 C 43.804688 209.410156 44.214844 211.792969 44.6875 214.164062 C 45.160156 216.539062 45.691406 218.898438 46.277344 221.246094 C 46.867188 223.589844 47.511719 225.921875 48.214844 228.238281 C 48.914062 230.550781 49.675781 232.847656 50.488281 235.128906 C 51.304688 237.40625 52.175781 239.660156 53.101562 241.898438 C 54.027344 244.132812 55.007812 246.34375 56.039062 248.53125 C 57.074219 250.714844 58.164062 252.878906 59.304688 255.011719 C 60.445312 257.144531 61.636719 259.25 62.878906 261.324219 C 64.125 263.398438 65.417969 265.441406 66.761719 267.453125 C 68.105469 269.464844 69.496094 271.441406 70.9375 273.386719 C 72.378906 275.328125 73.867188 277.234375 75.402344 279.105469 C 76.9375 280.976562 78.515625 282.808594 80.140625 284.601562 C 81.765625 286.390625 83.433594 288.144531 85.144531 289.855469 C 86.855469 291.566406 88.609375 293.234375 90.398438 294.859375 C 92.191406 296.484375 94.023438 298.0625 95.894531 299.597656 C 97.765625 301.132812 99.671875 302.621094 101.613281 304.0625 C 103.558594 305.503906 105.535156 306.894531 107.546875 308.238281 C 109.558594 309.582031 111.601562 310.875 113.675781 312.121094 C 115.75 313.363281 117.855469 314.554688 119.988281 315.695312 C 122.121094 316.835938 124.28125 317.925781 126.46875 318.960938 C 128.65625 319.992188 130.867188 320.972656 133.101562 321.898438 C 135.339844 322.824219 137.59375 323.695312 139.871094 324.511719 C 142.152344 325.324219 144.445312 326.085938 146.761719 326.785156 C 149.078125 327.488281 151.410156 328.132812 153.753906 328.722656 C 156.101562 329.308594 158.460938 329.839844 160.835938 330.3125 C 163.207031 330.785156 165.589844 331.195312 167.984375 331.550781 C 170.375 331.90625 172.777344 332.203125 175.183594 332.441406 C 177.59375 332.675781 180.003906 332.855469 182.421875 332.972656 C 184.835938 333.09375 187.253906 333.152344 189.675781 333.152344 C 192.09375 333.152344 194.511719 333.09375 196.925781 332.972656 C 199.34375 332.855469 201.753906 332.675781 204.164062 332.441406 C 206.570312 332.203125 208.972656 331.90625 211.363281 331.550781 C 213.757812 331.195312 216.140625 330.785156 218.511719 330.3125 C 220.886719 329.839844 223.246094 329.308594 225.59375 328.722656 C 227.941406 328.132812 230.269531 327.488281 232.585938 326.785156 C 234.902344 326.085938 237.195312 325.324219 239.476562 324.511719 C 241.753906 323.695312 244.007812 322.824219 246.246094 321.898438 C 248.480469 320.972656 250.691406 319.992188 252.878906 318.960938 C 255.066406 317.925781 257.226562 316.835938 259.359375 315.695312 C 261.492188 314.554688 263.597656 313.363281 265.671875 312.121094 C 267.746094 310.875 269.789062 309.582031 271.800781 308.238281 C 273.8125 306.894531 275.789062 305.503906 277.734375 304.0625 C 279.675781 302.621094 281.582031 301.132812 283.453125 299.597656 C 285.324219 298.0625 287.15625 296.484375 288.949219 294.859375 C 290.742188 293.234375 292.492188 291.566406 294.203125 289.855469 C 295.914062 288.144531 297.582031 286.390625 299.207031 284.601562 C 300.832031 282.808594 302.410156 280.976562 303.945312 279.105469 C 305.480469 277.234375 306.96875 275.328125 308.410156 273.386719 C 309.851562 271.441406 311.242188 269.464844 312.585938 267.453125 C 313.929688 265.441406 315.226562 263.398438 316.46875 261.324219 C 317.710938 259.25 318.90625 257.144531 320.042969 255.011719 C 321.183594 252.878906 322.273438 250.714844 323.308594 248.53125 C 324.339844 246.34375 325.320312 244.132812 326.246094 241.898438 C 327.171875 239.660156 328.042969 237.40625 328.859375 235.128906 C 329.671875 232.847656 330.433594 230.550781 331.132812 228.238281 C 331.835938 225.921875 332.480469 223.589844 333.070312 221.246094 C 333.65625 218.898438 334.1875 216.539062 334.660156 214.164062 C 335.132812 211.792969 335.546875 209.410156 335.898438 207.015625 C 336.253906 204.625 336.550781 202.222656 336.789062 199.816406 C 337.023438 197.40625 337.203125 194.996094 337.320312 192.578125 C 337.441406 190.164062 337.5 187.746094 337.5 185.324219 C 337.5 182.90625 337.441406 180.488281 337.320312 178.074219 C 337.203125 175.65625 337.023438 173.246094 336.789062 170.835938 C 336.550781 168.429688 336.253906 166.027344 335.898438 163.636719 C 335.546875 161.242188 335.132812 158.859375 334.660156 156.488281 C 334.1875 154.113281 333.65625 151.753906 333.070312 149.40625 C 332.480469 147.058594 331.835938 144.730469 331.132812 142.414062 C 330.433594 140.097656 329.671875 137.804688 328.859375 135.523438 C 328.042969 133.246094 327.171875 130.992188 326.246094 128.753906 C 325.320312 126.519531 324.339844 124.308594 323.308594 122.121094 C 322.273438 119.933594 321.183594 117.773438 320.042969 115.640625 C 318.90625 113.507812 317.710938 111.402344 316.46875 109.328125 C 315.226562 107.253906 313.929688 105.210938 312.585938 103.199219 C 311.242188 101.1875 309.851562 99.210938 308.410156 97.265625 C 306.96875 95.324219 305.480469 93.417969 303.945312 91.546875 C 302.410156 89.675781 300.832031 87.84375 299.207031 86.050781 C 297.582031 84.257812 295.914062 82.507812 294.203125 80.796875 C 292.492188 79.085938 290.742188 77.417969 288.949219 75.792969 C 287.15625 74.167969 285.324219 72.589844 283.453125 71.054688 C 281.582031 69.519531 279.675781 68.03125 277.734375 66.589844 C 275.789062 65.148438 273.8125 63.757812 271.800781 62.414062 C 269.789062 61.070312 267.746094 59.773438 265.671875 58.53125 C 263.597656 57.289062 261.492188 56.09375 259.359375 54.957031 C 257.226562 53.816406 255.066406 52.726562 252.878906 51.691406 C 250.691406 50.660156 248.480469 49.679688 246.246094 48.753906 C 244.007812 47.828125 241.753906 46.957031 239.476562 46.140625 C 237.195312 45.328125 234.902344 44.566406 232.585938 43.867188 C 230.269531 43.164062 227.941406 42.519531 225.59375 41.929688 C 223.246094 41.34375 220.886719 40.8125 218.511719 40.339844 C 216.140625 39.867188 213.757812 39.453125 211.363281 39.101562 C 208.972656 38.746094 206.570312 38.449219 204.164062 38.210938 C 201.753906 37.976562 199.34375 37.796875 196.925781 37.679688 C 194.511719 37.558594 192.09375 37.5 189.675781 37.5 Z M 189.675781 37.5 "/>
<path style=" stroke:none;fill-rule:nonzero;fill:rgb(94.898987%,72.549438%,4.708862%);fill-opacity:1;" d="M 189.675781 41.914062 C 187.328125 41.914062 184.980469 41.96875 182.636719 42.085938 C 180.292969 42.199219 177.953125 42.375 175.617188 42.601562 C 173.28125 42.832031 170.953125 43.121094 168.632812 43.464844 C 166.308594 43.808594 163.996094 44.210938 161.695312 44.667969 C 159.394531 45.125 157.105469 45.640625 154.828125 46.210938 C 152.550781 46.78125 150.289062 47.40625 148.042969 48.089844 C 145.796875 48.769531 143.570312 49.503906 141.359375 50.296875 C 139.148438 51.085938 136.960938 51.929688 134.792969 52.828125 C 132.625 53.726562 130.480469 54.679688 128.355469 55.683594 C 126.234375 56.683594 124.140625 57.742188 122.070312 58.847656 C 120 59.953125 117.957031 61.109375 115.945312 62.316406 C 113.933594 63.523438 111.949219 64.777344 109.996094 66.082031 C 108.046875 67.386719 106.128906 68.738281 104.242188 70.136719 C 102.359375 71.535156 100.507812 72.976562 98.695312 74.464844 C 96.878906 75.957031 95.101562 77.488281 93.363281 79.0625 C 91.625 80.640625 89.925781 82.257812 88.265625 83.917969 C 86.605469 85.578125 84.988281 87.277344 83.410156 89.015625 C 81.835938 90.753906 80.304688 92.53125 78.8125 94.34375 C 77.324219 96.160156 75.882812 98.007812 74.484375 99.894531 C 73.085938 101.78125 71.734375 103.699219 70.429688 105.648438 C 69.125 107.601562 67.871094 109.582031 66.664062 111.597656 C 65.457031 113.609375 64.300781 115.652344 63.195312 117.722656 C 62.089844 119.792969 61.035156 121.886719 60.03125 124.007812 C 59.027344 126.128906 58.074219 128.277344 57.175781 130.445312 C 56.277344 132.613281 55.433594 134.800781 54.644531 137.011719 C 53.851562 139.222656 53.117188 141.449219 52.4375 143.695312 C 51.753906 145.941406 51.128906 148.203125 50.558594 150.480469 C 49.988281 152.757812 49.472656 155.046875 49.015625 157.347656 C 48.558594 159.648438 48.15625 161.960938 47.8125 164.28125 C 47.46875 166.605469 47.179688 168.933594 46.953125 171.269531 C 46.722656 173.605469 46.546875 175.945312 46.433594 178.289062 C 46.320312 180.632812 46.261719 182.980469 46.261719 185.324219 C 46.261719 187.671875 46.320312 190.019531 46.433594 192.363281 C 46.546875 194.707031 46.722656 197.046875 46.953125 199.382812 C 47.179688 201.71875 47.46875 204.046875 47.8125 206.367188 C 48.15625 208.691406 48.558594 211.003906 49.015625 213.304688 C 49.472656 215.605469 49.988281 217.894531 50.558594 220.171875 C 51.128906 222.449219 51.753906 224.710938 52.4375 226.957031 C 53.117188 229.203125 53.851562 231.429688 54.644531 233.640625 C 55.433594 235.851562 56.277344 238.039062 57.175781 240.207031 C 58.074219 242.375 59.027344 244.519531 60.03125 246.644531 C 61.035156 248.765625 62.089844 250.859375 63.195312 252.929688 C 64.300781 255 65.457031 257.042969 66.664062 259.054688 C 67.871094 261.066406 69.125 263.050781 70.429688 265.003906 C 71.734375 266.953125 73.085938 268.871094 74.484375 270.757812 C 75.882812 272.640625 77.324219 274.492188 78.8125 276.304688 C 80.304688 278.121094 81.835938 279.898438 83.410156 281.636719 C 84.988281 283.375 86.605469 285.074219 88.265625 286.734375 C 89.925781 288.394531 91.625 290.011719 93.363281 291.589844 C 95.101562 293.164062 96.878906 294.695312 98.695312 296.1875 C 100.507812 297.675781 102.359375 299.117188 104.242188 300.515625 C 106.128906 301.914062 108.046875 303.265625 109.996094 304.570312 C 111.949219 305.875 113.933594 307.128906 115.945312 308.335938 C 117.957031 309.542969 120 310.699219 122.070312 311.804688 C 124.140625 312.910156 126.234375 313.964844 128.355469 314.96875 C 130.480469 315.972656 132.625 316.925781 134.792969 317.824219 C 136.960938 318.71875 139.148438 319.566406 141.359375 320.355469 C 143.570312 321.148438 145.796875 321.882812 148.042969 322.5625 C 150.289062 323.246094 152.550781 323.871094 154.828125 324.441406 C 157.105469 325.011719 159.394531 325.527344 161.695312 325.984375 C 163.996094 326.441406 166.308594 326.84375 168.632812 327.1875 C 170.953125 327.53125 173.28125 327.820312 175.617188 328.046875 C 177.953125 328.277344 180.292969 328.453125 182.636719 328.566406 C 184.980469 328.679688 187.328125 328.738281 189.675781 328.738281 C 192.019531 328.738281 194.367188 328.679688 196.710938 328.566406 C 199.054688 328.453125 201.394531 328.277344 203.730469 328.046875 C 206.066406 327.820312 208.394531 327.53125 210.71875 327.1875 C 213.039062 326.84375 215.351562 326.441406 217.652344 325.984375 C 219.953125 325.527344 222.242188 325.011719 224.519531 324.441406 C 226.796875 323.871094 229.058594 323.246094 231.304688 322.5625 C 233.550781 321.882812 235.777344 321.148438 237.988281 320.355469 C 240.199219 319.566406 242.386719 318.71875 244.554688 317.824219 C 246.722656 316.925781 248.871094 315.972656 250.992188 314.96875 C 253.113281 313.964844 255.207031 312.910156 257.277344 311.804688 C 259.347656 310.699219 261.390625 309.542969 263.402344 308.335938 C 265.417969 307.128906 267.398438 305.875 269.351562 304.570312 C 271.300781 303.265625 273.21875 301.914062 275.105469 300.515625 C 276.992188 299.117188 278.839844 297.675781 280.65625 296.1875 C 282.46875 294.695312 284.246094 293.164062 285.984375 291.589844 C 287.722656 290.011719 289.421875 288.394531 291.082031 286.734375 C 292.742188 285.074219 294.359375 283.375 295.9375 281.636719 C 297.511719 279.898438 299.042969 278.121094 300.535156 276.304688 C 302.023438 274.492188 303.464844 272.640625 304.863281 270.757812 C 306.261719 268.871094 307.613281 266.953125 308.917969 265.003906 C 310.222656 263.050781 311.476562 261.066406 312.683594 259.054688 C 313.890625 257.042969 315.046875 255 316.152344 252.929688 C 317.257812 250.859375 318.3125 248.765625 319.316406 246.644531 C 320.320312 244.519531 321.273438 242.375 322.171875 240.207031 C 323.070312 238.039062 323.914062 235.851562 324.703125 233.640625 C 325.496094 231.429688 326.230469 229.203125 326.910156 226.957031 C 327.59375 224.710938 328.21875 222.449219 328.789062 220.171875 C 329.359375 217.894531 329.875 215.605469 330.332031 213.304688 C 330.789062 211.003906 331.191406 208.691406 331.535156 206.367188 C 331.878906 204.046875 332.167969 201.71875 332.398438 199.382812 C 332.625 197.046875 332.800781 194.707031 332.914062 192.363281 C 333.03125 190.019531 333.085938 187.671875 333.085938 185.324219 C 333.085938 182.980469 333.03125 180.632812 332.914062 178.289062 C 332.800781 175.945312 332.625 173.605469 332.398438 171.269531 C 332.167969 168.933594 331.878906 166.605469 331.535156 164.28125 C 331.191406 161.960938 330.789062 159.648438 330.332031 157.347656 C 329.875 155.046875 329.359375 152.757812 328.789062 150.480469 C 328.21875 148.203125 327.59375 145.941406 326.910156 143.695312 C 326.230469 141.449219 325.496094 139.222656 324.703125 137.011719 C 323.914062 134.800781 323.070312 132.613281 322.171875 130.445312 C 321.273438 128.277344 320.320312 126.128906 319.316406 124.007812 C 318.3125 121.886719 317.257812 119.792969 316.152344 117.722656 C 315.046875 115.652344 313.890625 113.609375 312.683594 111.597656 C 311.476562 109.582031 310.222656 107.601562 308.917969 105.648438 C 307.613281 103.699219 306.261719 101.78125 304.863281 99.894531 C 303.464844 98.007812 302.023438 96.160156 300.535156 94.34375 C 299.042969 92.53125 297.511719 90.753906 295.9375 89.015625 C 294.359375 87.277344 292.742188 85.578125 291.082031 83.917969 C 289.421875 82.257812 287.722656 80.640625 285.984375 79.0625 C 284.246094 77.488281 282.46875 75.957031 280.65625 74.464844 C 278.839844 72.976562 276.992188 71.535156 275.105469 70.136719 C 273.21875 68.738281 271.300781 67.386719 269.351562 66.082031 C 267.398438 64.777344 265.417969 63.523438 263.402344 62.316406 C 261.390625 61.109375 259.347656 59.953125 257.277344 58.847656 C 255.207031 57.742188 253.113281 56.683594 250.992188 55.683594 C 248.871094 54.679688 246.722656 53.726562 244.554688 52.828125 C 242.386719 51.929688 240.199219 51.085938 237.988281 50.296875 C 235.777344 49.503906 233.550781 48.769531 231.304688 48.089844 C 229.058594 47.40625 226.796875 46.78125 224.519531 46.210938 C 222.242188 45.640625 219.953125 45.125 217.652344 44.667969 C 215.351562 44.210938 213.039062 43.808594 210.71875 43.464844 C 208.394531 43.121094 206.066406 42.832031 203.730469 42.601562 C 201.394531 42.375 199.054688 42.199219 196.710938 42.085938 C 194.367188 41.96875 192.019531 41.914062 189.675781 41.914062 Z M 189.675781 41.914062 "/>
<path style=" stroke:none;fill-rule:nonzero;fill:rgb(11.369324%,11.369324%,11.369324%);fill-opacity:1;" d="M 234.601562 198.890625 C 235.667969 197.5 236.664062 196.066406 237.59375 194.582031 C 238.527344 193.101562 239.386719 191.578125 240.175781 190.015625 C 240.964844 188.453125 241.679688 186.859375 242.324219 185.230469 C 242.964844 183.601562 243.527344 181.949219 244.015625 180.265625 C 244.503906 178.585938 244.914062 176.886719 245.246094 175.167969 C 245.578125 173.449219 245.828125 171.71875 245.996094 169.976562 C 246.167969 168.234375 246.257812 166.488281 246.265625 164.738281 C 246.273438 162.988281 246.203125 161.242188 246.046875 159.496094 C 245.894531 157.753906 245.660156 156.019531 245.347656 154.296875 C 245.03125 152.578125 244.640625 150.871094 244.167969 149.1875 C 243.695312 147.503906 243.148438 145.84375 242.519531 144.207031 C 241.894531 142.574219 241.195312 140.972656 240.421875 139.402344 C 239.644531 137.832031 238.800781 136.300781 237.882812 134.8125 C 236.96875 133.320312 235.984375 131.875 234.933594 130.472656 C 233.882812 129.074219 232.769531 127.726562 231.59375 126.429688 C 230.417969 125.132812 229.1875 123.894531 227.898438 122.710938 C 226.605469 121.53125 225.265625 120.410156 223.871094 119.351562 C 222.476562 118.292969 221.035156 117.304688 219.550781 116.378906 C 218.066406 115.457031 216.539062 114.601562 214.972656 113.820312 C 213.410156 113.039062 211.8125 112.328125 210.179688 111.695312 C 208.550781 111.0625 206.894531 110.503906 205.210938 110.023438 C 203.527344 109.542969 201.828125 109.140625 200.109375 108.816406 C 198.386719 108.496094 196.65625 108.253906 194.914062 108.089844 C 193.171875 107.929688 191.429688 107.847656 189.679688 107.847656 C 187.929688 107.847656 186.183594 107.929688 184.441406 108.089844 C 182.699219 108.253906 180.96875 108.496094 179.25 108.816406 C 177.527344 109.140625 175.828125 109.542969 174.144531 110.023438 C 172.464844 110.503906 170.808594 111.0625 169.175781 111.695312 C 167.546875 112.328125 165.949219 113.039062 164.382812 113.820312 C 162.816406 114.601562 161.292969 115.457031 159.804688 116.378906 C 158.320312 117.304688 156.878906 118.292969 155.488281 119.351562 C 154.09375 120.410156 152.75 121.53125 151.460938 122.710938 C 150.171875 123.894531 148.9375 125.132812 147.761719 126.429688 C 146.585938 127.726562 145.472656 129.074219 144.421875 130.472656 C 143.371094 131.875 142.390625 133.320312 141.472656 134.8125 C 140.558594 136.300781 139.710938 137.832031 138.9375 139.402344 C 138.164062 140.972656 137.460938 142.574219 136.835938 144.207031 C 136.210938 145.84375 135.660156 147.503906 135.1875 149.1875 C 134.71875 150.871094 134.324219 152.578125 134.011719 154.296875 C 133.695312 156.019531 133.460938 157.753906 133.308594 159.496094 C 133.15625 161.242188 133.082031 162.988281 133.089844 164.738281 C 133.097656 166.488281 133.1875 168.234375 133.359375 169.976562 C 133.53125 171.71875 133.78125 173.449219 134.109375 175.167969 C 134.441406 176.886719 134.851562 178.585938 135.339844 180.265625 C 135.828125 181.949219 136.394531 183.601562 137.035156 185.230469 C 137.675781 186.859375 138.390625 188.453125 139.183594 190.015625 C 139.972656 191.578125 140.832031 193.101562 141.761719 194.582031 C 142.691406 196.066406 143.691406 197.5 144.753906 198.890625 L 144.769531 198.890625 C 147.050781 201.875 149.601562 204.601562 152.421875 207.074219 C 155.246094 209.550781 158.285156 211.722656 161.539062 213.589844 C 164.796875 215.457031 168.203125 216.988281 171.761719 218.175781 C 175.320312 219.363281 178.964844 220.191406 182.6875 220.652344 C 187.355469 221.234375 192.019531 221.234375 196.6875 220.652344 C 200.410156 220.191406 204.054688 219.367188 207.613281 218.179688 C 211.171875 216.988281 214.582031 215.460938 217.835938 213.59375 C 221.089844 211.722656 224.128906 209.554688 226.953125 207.078125 C 229.773438 204.601562 232.324219 201.875 234.601562 198.890625 Z M 189.675781 205.503906 C 188.332031 205.503906 186.988281 205.441406 185.652344 205.308594 C 184.3125 205.175781 182.984375 204.980469 181.664062 204.71875 C 180.34375 204.457031 179.042969 204.128906 177.753906 203.742188 C 176.46875 203.351562 175.203125 202.898438 173.960938 202.382812 C 172.71875 201.871094 171.503906 201.296875 170.316406 200.660156 C 169.132812 200.027344 167.980469 199.335938 166.863281 198.589844 C 165.742188 197.84375 164.664062 197.042969 163.625 196.191406 C 162.585938 195.335938 161.589844 194.433594 160.636719 193.484375 C 159.6875 192.535156 158.785156 191.539062 157.933594 190.5 C 157.078125 189.460938 156.277344 188.378906 155.53125 187.261719 C 154.785156 186.144531 154.09375 184.992188 153.460938 183.804688 C 152.824219 182.617188 152.25 181.40625 151.734375 180.160156 C 151.222656 178.917969 150.769531 177.652344 150.378906 176.367188 C 149.988281 175.078125 149.660156 173.777344 149.398438 172.457031 C 149.136719 171.136719 148.9375 169.808594 148.808594 168.46875 C 148.675781 167.132812 148.609375 165.789062 148.609375 164.445312 C 148.609375 163.101562 148.675781 161.757812 148.804688 160.421875 C 148.9375 159.082031 149.132812 157.753906 149.394531 156.4375 C 149.65625 155.117188 149.984375 153.8125 150.371094 152.527344 C 150.761719 151.242188 151.214844 149.976562 151.730469 148.734375 C 152.242188 147.492188 152.816406 146.277344 153.449219 145.089844 C 154.082031 143.90625 154.773438 142.753906 155.519531 141.636719 C 156.265625 140.515625 157.066406 139.4375 157.917969 138.398438 C 158.773438 137.359375 159.671875 136.363281 160.625 135.414062 C 161.574219 134.460938 162.570312 133.558594 163.609375 132.707031 C 164.648438 131.851562 165.726562 131.054688 166.84375 130.304688 C 167.960938 129.558594 169.113281 128.867188 170.296875 128.234375 C 171.484375 127.601562 172.699219 127.027344 173.941406 126.511719 C 175.183594 125.996094 176.445312 125.542969 177.734375 125.152344 C 179.019531 124.761719 180.320312 124.4375 181.640625 124.175781 C 182.960938 123.910156 184.289062 123.714844 185.625 123.582031 C 186.964844 123.453125 188.304688 123.386719 189.648438 123.386719 C 190.992188 123.386719 192.335938 123.453125 193.671875 123.585938 C 195.011719 123.714844 196.339844 123.914062 197.660156 124.175781 C 198.976562 124.4375 200.28125 124.765625 201.566406 125.15625 C 202.855469 125.546875 204.117188 126 205.359375 126.515625 C 206.601562 127.03125 207.816406 127.605469 209.003906 128.242188 C 210.1875 128.875 211.339844 129.566406 212.457031 130.3125 C 213.574219 131.0625 214.65625 131.863281 215.695312 132.714844 C 216.734375 133.570312 217.726562 134.472656 218.679688 135.421875 C 219.628906 136.375 220.53125 137.371094 221.382812 138.410156 C 222.234375 139.453125 223.035156 140.53125 223.78125 141.648438 C 224.527344 142.769531 225.21875 143.921875 225.851562 145.109375 C 226.484375 146.292969 227.058594 147.507812 227.570312 148.753906 C 228.085938 149.996094 228.539062 151.261719 228.925781 152.546875 C 229.316406 153.835938 229.644531 155.136719 229.90625 156.457031 C 230.164062 157.777344 230.363281 159.105469 230.492188 160.445312 C 230.625 161.785156 230.6875 163.125 230.6875 164.472656 C 230.6875 165.816406 230.621094 167.15625 230.488281 168.492188 C 230.355469 169.828125 230.15625 171.15625 229.894531 172.472656 C 229.628906 173.789062 229.304688 175.09375 228.914062 176.378906 C 228.523438 177.664062 228.070312 178.925781 227.554688 180.167969 C 227.039062 181.40625 226.464844 182.621094 225.832031 183.804688 C 225.199219 184.988281 224.507812 186.140625 223.761719 187.257812 C 223.015625 188.375 222.21875 189.453125 221.367188 190.492188 C 220.511719 191.527344 219.613281 192.523438 218.664062 193.472656 C 217.714844 194.421875 216.71875 195.324219 215.683594 196.175781 C 214.644531 197.03125 213.566406 197.828125 212.449219 198.574219 C 211.335938 199.324219 210.183594 200.011719 209 200.648438 C 207.816406 201.28125 206.605469 201.855469 205.363281 202.371094 C 204.125 202.882812 202.859375 203.335938 201.574219 203.726562 C 200.292969 204.117188 198.988281 204.445312 197.671875 204.707031 C 196.355469 204.972656 195.03125 205.171875 193.695312 205.304688 C 192.359375 205.4375 191.019531 205.503906 189.675781 205.503906 Z M 189.675781 205.503906 "/>
<g clip-path="url(#clip1)" clip-rule="nonzero">
<path style=" stroke:none;fill-rule:nonzero;fill:rgb(11.369324%,11.369324%,11.369324%);fill-opacity:1;" d="M 143.5 201.488281 L 143.484375 201.488281 L 143.34375 201.300781 L 116.074219 248.097656 C 115.75 248.65625 115.613281 249.253906 115.65625 249.894531 C 115.703125 250.535156 115.921875 251.109375 116.316406 251.617188 C 116.714844 252.125 117.21875 252.476562 117.828125 252.675781 C 118.441406 252.871094 119.054688 252.882812 119.671875 252.703125 L 138.796875 247.09375 C 139.148438 246.992188 139.503906 246.953125 139.867188 246.976562 C 140.230469 247 140.578125 247.082031 140.914062 247.226562 C 141.246094 247.367188 141.546875 247.566406 141.8125 247.8125 C 142.082031 248.058594 142.296875 248.34375 142.464844 248.667969 L 151.570312 266.257812 C 151.832031 266.769531 152.210938 267.179688 152.699219 267.480469 C 153.191406 267.785156 153.722656 267.941406 154.296875 267.953125 C 154.875 267.964844 155.410156 267.828125 155.914062 267.542969 C 156.414062 267.257812 156.804688 266.863281 157.089844 266.363281 L 181.488281 223.113281 C 177.785156 222.585938 174.164062 221.722656 170.625 220.511719 C 167.082031 219.300781 163.6875 217.773438 160.433594 215.921875 C 157.183594 214.070312 154.132812 211.933594 151.285156 209.503906 C 148.4375 207.078125 145.84375 204.40625 143.5 201.488281 Z M 143.5 201.488281 "/>
</g>
<g clip-path="url(#clip2)" clip-rule="nonzero">
<path style=" stroke:none;fill-rule:nonzero;fill:rgb(11.369324%,11.369324%,11.369324%);fill-opacity:1;" d="M 263.269531 248.097656 L 235.996094 201.300781 C 233.65625 204.242188 231.054688 206.9375 228.203125 209.386719 C 225.347656 211.835938 222.289062 213.996094 219.027344 215.863281 C 215.761719 217.730469 212.351562 219.273438 208.792969 220.496094 C 205.238281 221.714844 201.597656 222.585938 197.875 223.113281 L 222.253906 266.363281 C 222.539062 266.867188 222.933594 267.257812 223.433594 267.542969 C 223.933594 267.828125 224.472656 267.964844 225.046875 267.957031 C 225.621094 267.945312 226.15625 267.789062 226.644531 267.484375 C 227.132812 267.179688 227.511719 266.773438 227.777344 266.261719 L 236.878906 248.667969 C 237.046875 248.34375 237.265625 248.058594 237.535156 247.8125 C 237.804688 247.5625 238.105469 247.367188 238.441406 247.222656 C 238.777344 247.082031 239.128906 246.996094 239.492188 246.976562 C 239.859375 246.953125 240.214844 246.992188 240.566406 247.09375 L 259.667969 252.703125 C 260.289062 252.886719 260.902344 252.878906 261.515625 252.679688 C 262.132812 252.484375 262.636719 252.132812 263.03125 251.625 C 263.429688 251.117188 263.648438 250.539062 263.691406 249.898438 C 263.734375 249.253906 263.59375 248.65625 263.269531 248.097656 Z M 263.269531 248.097656 "/>
</g>
<path style=" stroke:none;fill-rule:nonzero;fill:rgb(11.369324%,11.369324%,11.369324%);fill-opacity:1;" d="M 209.789062 156.550781 L 198.5625 154.921875 C 198.234375 154.871094 198.003906 154.699219 197.859375 154.402344 L 192.84375 144.226562 C 192.542969 143.625 192.109375 143.144531 191.539062 142.792969 C 190.96875 142.4375 190.351562 142.257812 189.679688 142.257812 C 189.007812 142.257812 188.386719 142.4375 187.816406 142.792969 C 187.246094 143.144531 186.8125 143.625 186.515625 144.226562 L 181.496094 154.402344 C 181.351562 154.699219 181.117188 154.871094 180.792969 154.921875 L 169.566406 156.550781 C 168.902344 156.648438 168.316406 156.914062 167.800781 157.347656 C 167.289062 157.78125 166.929688 158.316406 166.722656 158.953125 C 166.511719 159.59375 166.492188 160.238281 166.652344 160.890625 C 166.8125 161.542969 167.132812 162.105469 167.613281 162.574219 L 175.734375 170.496094 C 175.96875 170.722656 176.058594 170.996094 176.003906 171.320312 L 174.085938 182.511719 C 173.972656 183.175781 174.039062 183.816406 174.292969 184.4375 C 174.546875 185.0625 174.945312 185.570312 175.488281 185.964844 C 176.03125 186.359375 176.636719 186.582031 177.308594 186.628906 C 177.976562 186.679688 178.609375 186.546875 179.203125 186.234375 L 189.242188 180.953125 C 189.53125 180.804688 189.820312 180.804688 190.109375 180.953125 L 200.144531 186.234375 C 200.738281 186.550781 201.371094 186.683594 202.042969 186.636719 C 202.714844 186.585938 203.320312 186.367188 203.867188 185.96875 C 204.410156 185.574219 204.808594 185.066406 205.0625 184.441406 C 205.316406 183.816406 205.382812 183.175781 205.269531 182.511719 L 203.347656 171.320312 C 203.289062 170.996094 203.378906 170.722656 203.613281 170.496094 L 211.734375 162.574219 C 212.214844 162.105469 212.539062 161.542969 212.699219 160.890625 C 212.859375 160.238281 212.835938 159.59375 212.628906 158.953125 C 212.421875 158.316406 212.0625 157.777344 211.546875 157.347656 C 211.035156 156.914062 210.445312 156.648438 209.78125 156.550781 Z M 209.789062 156.550781 "/>
</g>
</svg>
